<svg width="49" height="49" viewBox="0 0 49 49" fill="none" xmlns="http://www.w3.org/2000/svg">
<rect width="49" height="49" rx="10" fill="#007AFF"/>
<path d="M15.7943 20.756C16.3703 19.82 17.1983 19.064 18.2783 18.488C19.3583 17.912 20.5943 17.624 21.9863 17.624C23.6423 17.624 25.1423 18.044 26.4863 18.884C27.8303 19.724 28.8863 20.924 29.6543 22.484C30.4463 24.044 30.8423 25.856 30.8423 27.92C30.8423 29.984 30.4463 31.808 29.6543 33.392C28.8863 34.952 27.8303 36.164 26.4863 37.028C25.1423 37.868 23.6423 38.288 21.9863 38.288C20.5703 38.288 19.3343 38.012 18.2783 37.46C17.2223 36.884 16.3943 36.128 15.7943 35.192V38H9.63825V11.36H15.7943V20.756ZM24.5783 27.92C24.5783 26.384 24.1463 25.184 23.2823 24.32C22.4423 23.432 21.3983 22.988 20.1503 22.988C18.9263 22.988 17.8823 23.432 17.0183 24.32C16.1783 25.208 15.7583 26.42 15.7583 27.956C15.7583 29.492 16.1783 30.704 17.0183 31.592C17.8823 32.48 18.9263 32.924 20.1503 32.924C21.3743 32.924 22.4183 32.48 23.2823 31.592C24.1463 30.68 24.5783 29.456 24.5783 27.92ZM36.9518 38.288C35.8718 38.288 34.9838 37.976 34.2878 37.352C33.6158 36.704 33.2798 35.912 33.2798 34.976C33.2798 34.016 33.6158 33.212 34.2878 32.564C34.9838 31.916 35.8718 31.592 36.9518 31.592C38.0078 31.592 38.8718 31.916 39.5438 32.564C40.2398 33.212 40.5878 34.016 40.5878 34.976C40.5878 35.912 40.2398 36.704 39.5438 37.352C38.8718 37.976 38.0078 38.288 36.9518 38.288Z" fill="white"/>
</svg>
